<svg version="1.1" id="Layer_1" xmlns="http://www.w3.org/2000/svg" xmlns:xlink="http://www.w3.org/1999/xlink" x="0px" y="0px"
	 width="100%" viewBox="0 0 500 500" enable-background="new 0 0 500 500" xml:space="preserve">
<path fill="#000000" opacity="1.000000" stroke="none" 
	d="
M283.000000,501.000000 
	C188.666687,501.000000 94.833382,501.000000 1.000050,501.000000 
	C1.000034,334.333405 1.000034,167.666794 1.000017,1.000140 
	C167.666565,1.000093 334.333130,1.000093 500.999756,1.000047 
	C500.999847,167.666519 500.999847,334.333038 500.999939,500.999786 
	C428.500000,501.000000 356.000000,501.000000 283.000000,501.000000 
M200.960754,366.993927 
	C200.960754,366.993927 200.889008,366.945648 200.223175,367.137360 
	C199.509537,368.749420 198.795914,370.361481 197.902206,372.652069 
	C196.031540,375.660950 194.160858,378.669800 192.105835,381.975189 
	C197.531708,383.942352 199.605316,380.942566 201.549591,377.458038 
	C204.315552,372.500946 207.209412,367.615234 210.048630,362.699036 
	C211.556931,364.532104 211.891678,366.072357 212.096008,367.629730 
	C212.805786,373.039825 213.337051,378.478302 214.242645,383.854370 
	C214.479080,385.258026 215.583664,387.165039 216.736923,387.571503 
	C217.771942,387.936310 219.730286,386.866852 220.727890,385.873993 
	C222.214798,384.394257 223.291702,382.472626 224.407639,380.655853 
	C227.244629,376.037109 230.006439,371.372192 232.798340,366.725769 
	C234.537598,374.023407 235.021210,380.928589 235.997681,387.763397 
	C236.242386,389.476227 238.070877,390.962738 239.171463,392.553284 
	C240.005554,391.150696 240.839645,389.748108 241.591309,387.593567 
	C240.961945,381.157104 240.534058,374.691925 239.622482,368.295685 
	C239.129501,364.836548 237.810684,361.495117 236.087494,358.012024 
	C234.134384,359.157959 231.579285,359.860474 230.345215,361.536011 
	C227.122375,365.911774 224.520859,370.741272 221.561539,375.318695 
	C221.044235,376.118835 219.991547,376.572876 218.609390,377.626343 
	C218.043289,372.447144 217.441452,368.082001 217.112793,363.696411 
	C216.431870,354.610291 216.173370,354.117004 209.410126,353.038177 
	C208.580002,354.326630 207.749878,355.615112 206.879471,356.914520 
	C206.879471,356.914520 206.879105,356.956268 206.201981,357.138580 
	C205.099442,359.399658 203.996902,361.660736 202.995361,363.998352 
	C202.995361,363.998352 202.902054,363.912933 202.254623,364.087097 
	C201.796188,365.039398 201.337738,365.991699 200.960754,366.993927 
M338.964539,122.987450 
	C338.964539,122.987450 338.913879,122.880707 338.180206,123.172440 
	C335.834106,127.630783 336.679169,131.101135 341.601379,135.169937 
	C343.936127,137.224075 346.057404,139.648300 348.698334,141.171600 
	C349.962677,141.900879 352.845123,141.594116 353.900085,140.597656 
	C357.608826,137.094635 361.163330,133.316788 364.111389,129.170441 
	C365.435272,127.308418 366.037659,124.112122 365.476990,121.898842 
	C364.230438,116.977966 355.957764,112.853111 349.184021,114.218422 
	C352.517670,116.265503 354.869934,117.694336 357.206604,119.148270 
	C361.329437,121.713608 361.565186,124.460350 357.618378,127.630630 
	C353.504974,123.011703 348.394287,120.373795 341.300659,120.964272 
	C340.510437,121.601761 339.720184,122.239250 338.964539,122.987450 
M383.001312,233.952957 
	C383.001312,233.952957 382.928528,233.894745 382.226288,234.146988 
	C381.170380,236.751129 379.603607,239.272522 379.165680,241.976746 
	C378.272400,247.492630 382.122131,251.281845 387.577057,249.773758 
	C386.007843,243.881592 384.014679,237.893967 391.775574,234.370758 
	C390.329315,240.899796 388.314087,247.433990 392.684296,253.842499 
	C394.166504,253.657608 395.644501,253.422745 397.131653,253.296204 
	C404.938568,252.631973 409.229645,245.695496 407.456360,238.155380 
	C405.471588,229.715698 394.591736,227.215897 384.319519,231.951477 
	C383.850891,232.608322 383.382294,233.265152 383.001312,233.952957 
M374.459839,304.269104 
	C376.099213,304.328064 377.753967,304.264618 379.375244,304.467804 
	C385.382782,305.220734 388.873474,303.454834 391.878387,298.011475 
	C395.057648,292.252258 392.015656,284.766968 385.178070,281.524384 
	C377.649048,277.953888 369.687622,280.720245 366.950806,287.857819 
	C365.033447,292.858124 365.487061,295.109650 368.993469,296.910858 
	C371.044830,291.710358 371.770569,285.199677 379.654175,284.620728 
	C379.407104,286.360077 379.225067,287.641571 378.320953,289.063293 
	C376.379089,292.329102 374.206177,295.486481 372.599274,298.909546 
	C371.868073,300.467133 369.823792,303.247192 374.459839,304.269104 
M409.513336,191.201782 
	C400.348633,192.489975 391.153564,193.610336 382.054047,195.258438 
	C380.778656,195.489426 379.120575,198.307205 379.119446,199.928635 
	C379.116852,203.693909 379.906586,207.479935 380.578217,211.221100 
	C381.820831,218.142944 386.224731,222.556732 392.797058,224.063492 
	C399.623901,225.628571 406.312469,224.875961 411.812256,218.512650 
	C418.091919,210.315186 414.316071,201.594879 413.004272,193.044312 
	C412.893738,192.323837 411.322388,191.827484 409.513336,191.201782 
M292.976440,103.820030 
	C297.433777,107.261093 300.718597,107.591484 303.896088,104.519806 
	C302.180023,103.924332 300.417786,103.731766 299.254303,102.795258 
	C298.006104,101.790543 296.196960,99.409592 296.567474,98.794281 
	C299.586761,93.779938 297.695648,84.576790 307.605164,85.186844 
	C307.778107,85.197495 307.982422,84.698792 307.817200,84.926163 
	C306.197388,82.075981 304.689728,79.423164 303.182098,76.770348 
	C303.534760,76.302864 303.887421,75.835381 304.240082,75.367897 
	C302.359283,75.367897 299.480652,74.585220 298.764221,75.498558 
	C294.934479,80.380920 290.954987,76.951218 286.717712,76.532501 
	C287.456299,72.870918 287.603027,69.186783 292.854156,71.408669 
	C293.466339,71.667694 294.487762,70.959442 295.319458,70.699615 
	C294.868469,69.752098 294.667969,68.456978 293.921692,67.919167 
	C291.164948,65.932503 284.093658,67.226631 282.029266,69.900963 
	C280.365417,72.056450 278.699371,74.210266 277.708344,75.492622 
	C278.090393,78.983765 278.873260,81.857864 278.593262,84.624397 
	C278.213715,88.374786 277.312500,92.141716 276.102325,95.721466 
	C274.528412,100.377213 276.474121,100.927170 280.534851,100.037926 
	C281.622070,95.543961 282.781891,91.072220 283.776367,86.564003 
	C285.268677,79.798935 287.155640,78.888931 294.018738,82.644669 
	C293.301910,85.914925 292.534943,89.175201 291.881653,92.458115 
	C291.153442,96.117546 288.160065,99.942909 292.976440,103.820030 
M110.149460,293.069733 
	C106.030701,297.902618 105.618919,303.300110 109.301765,308.612335 
	C111.292061,312.248749 113.170753,315.952148 115.302361,319.503754 
	C117.692337,323.485870 120.737656,323.426300 124.493042,321.034607 
	C130.348557,317.305450 136.459015,313.978668 142.416107,310.405823 
	C144.454575,309.183228 146.356812,307.733521 148.936188,305.966217 
	C144.225433,299.894409 140.441193,294.070129 135.715836,289.149658 
	C128.750412,281.896637 112.747383,286.319885 110.149460,293.069733 
M326.978241,105.684914 
	C326.856812,109.809967 326.730743,113.934883 326.615509,118.060112 
	C326.531342,121.072388 328.536804,123.135056 330.819702,121.526741 
	C337.366516,116.914436 343.396149,111.568047 349.629089,106.510231 
	C349.237671,105.861740 348.846252,105.213249 348.454803,104.564758 
	C340.672180,102.786293 338.532806,113.603622 331.012665,113.807793 
	C332.286804,107.757362 333.488800,102.049606 334.737640,96.119400 
	C325.623993,92.757629 322.768127,103.215965 315.615936,104.387177 
	C316.466156,99.105400 317.463593,94.272186 317.888184,89.389168 
	C318.006104,88.033478 316.425201,86.530067 315.623657,85.094406 
	C314.750580,86.298973 313.433411,87.387016 313.081451,88.728325 
	C311.578705,94.455673 310.167053,100.224312 309.160095,106.053520 
	C308.866119,107.755333 309.476685,110.568970 310.657776,111.316498 
	C311.990173,112.159821 314.762604,111.837120 316.321136,110.967911 
	C319.020691,109.462334 321.176086,107.011078 323.758514,105.247612 
	C324.563599,104.697838 326.009979,105.087173 326.978241,105.684914 
M156.600098,359.145477 
	C157.900421,357.445709 159.128601,355.684479 160.514603,354.057678 
	C164.691650,349.155060 169.090897,344.430115 173.046631,339.357574 
	C174.233200,337.835999 175.354111,334.620850 174.587906,333.537445 
	C172.570328,330.684540 169.542389,328.527100 166.838898,326.182556 
	C162.024826,322.007599 154.621201,322.044189 149.464691,326.192596 
	C144.355255,330.303101 142.760834,336.406921 146.643616,342.015656 
	C148.912903,345.293701 153.113129,347.235016 156.984756,350.189911 
	C155.319962,352.368591 152.962921,355.453247 150.547592,358.614166 
	C151.974030,361.503662 153.819244,361.526276 156.600098,359.145477 
M346.787964,350.761993 
	C347.110138,349.690063 348.010284,348.339691 347.651825,347.595703 
	C346.288910,344.766937 344.603424,342.079285 342.883789,339.439697 
	C339.545837,334.316040 336.279938,329.125854 332.579742,324.271515 
	C331.654816,323.058167 329.191772,323.017273 327.435669,322.437531 
	C327.735199,324.020203 327.902069,325.644775 328.384186,327.169739 
	C328.671326,328.077911 329.478668,328.813812 330.009216,329.654297 
	C331.922180,332.684753 332.217834,334.665436 327.574005,335.183502 
	C321.666290,335.842529 318.387665,339.573730 318.113525,344.939270 
	C317.786713,351.334900 321.321320,357.147369 326.804443,359.230957 
	C331.885925,361.161865 337.959625,358.781616 342.109894,353.541260 
	C343.048615,352.355988 344.759918,351.782593 346.787964,350.761993 
M144.720047,155.006165 
	C148.097336,151.171738 147.872833,146.932114 145.313675,143.026199 
	C141.867584,137.766556 136.829102,135.275040 130.368134,136.111374 
	C125.567726,136.732773 122.715591,139.503922 120.882950,143.847260 
	C119.911346,146.149933 118.054489,148.081970 117.106308,150.390411 
	C116.637939,151.530685 116.807678,153.921036 117.566277,154.425156 
	C125.550255,159.730698 133.659607,164.856323 141.887482,169.775452 
	C142.960663,170.417068 144.895355,169.617722 147.755005,169.372070 
	C143.752838,166.180511 141.229477,164.168228 138.697433,162.149048 
	C140.856766,159.635590 142.581223,157.628326 144.720047,155.006165 
M111.001839,221.138031 
	C111.322739,217.018921 111.858459,212.898270 111.828659,208.781693 
	C111.820137,207.605148 109.880669,205.310623 109.324104,205.454407 
	C105.806580,206.363144 101.505005,206.914108 99.203857,209.278336 
	C94.854996,213.746445 95.777916,221.897720 99.970718,226.160477 
	C103.797012,230.050552 113.620125,231.093399 117.711075,228.043823 
	C122.786064,224.260712 125.251801,215.160324 122.065445,210.205399 
	C121.118027,208.732117 118.542442,208.305878 116.712883,207.399902 
	C116.434372,207.884827 116.155853,208.369766 115.877335,208.854691 
	C116.184776,209.742783 116.317848,210.749802 116.828896,211.499008 
	C119.468742,215.369125 117.381691,218.987244 115.844360,222.279785 
	C115.111908,223.848511 112.275688,227.271988 111.001839,221.138031 
M115.356400,282.664276 
	C126.974892,281.037659 132.122223,272.981750 127.615379,262.994507 
	C126.785530,261.155548 124.607597,259.692139 122.720314,258.664276 
	C121.817589,258.172607 120.139099,259.105347 118.811974,259.392975 
	C119.431442,260.424103 119.867012,261.644714 120.701408,262.454346 
	C124.874008,266.503052 124.850555,271.610291 119.837616,276.250153 
	C118.581230,272.249969 117.748428,268.471222 116.182945,265.025299 
	C115.200882,262.863617 113.083206,259.636047 111.536896,259.670349 
	C108.997681,259.726776 106.016823,261.563599 104.107338,263.515564 
	C100.772827,266.924225 101.563934,271.579346 103.456947,275.178986 
	C105.630127,279.311371 108.675613,283.413910 115.356400,282.664276 
M393.017975,161.940231 
	C392.252991,159.963638 391.987488,157.508911 390.634338,156.095383 
	C385.503021,150.735229 373.761444,151.303940 368.991333,156.838867 
	C364.667511,161.855988 366.385437,171.452805 372.741119,176.007660 
	C374.158722,177.023590 376.460449,176.805801 378.355103,177.156036 
	C377.427063,175.687607 376.481079,174.230133 375.575256,172.748108 
	C374.299561,170.660797 372.633881,168.690872 371.901337,166.423172 
	C370.988586,163.597595 371.727081,160.969086 375.582062,159.516754 
	C377.079041,163.044998 378.089447,166.600388 380.009003,169.567657 
	C381.464233,171.817230 383.889252,174.507385 386.219727,174.877060 
	C389.879730,175.457626 392.142517,172.430176 392.726593,168.756317 
	C393.037201,166.802567 392.943878,164.784607 393.017975,161.940231 
M150.848785,130.347870 
	C152.736481,128.329651 154.538071,126.221848 156.527603,124.309586 
	C163.104507,117.988159 163.130402,118.015678 154.653870,114.838135 
	C154.501038,114.780853 154.377029,114.631531 154.222992,114.594872 
	C147.384842,112.967461 137.422699,117.580894 138.094284,126.326828 
	C138.989395,137.983719 151.722336,141.516510 160.187759,137.111618 
	C164.031601,135.111526 166.298477,129.462723 164.778915,124.245003 
	C163.039886,125.965836 161.797226,127.292992 160.451721,128.506088 
	C157.874252,130.829910 155.368423,133.275177 152.539764,135.250290 
	C151.786072,135.776566 149.969131,134.780075 148.640335,134.482697 
	C149.176025,133.227448 149.711716,131.972198 150.848785,130.347870 
M250.234390,95.811501 
	C254.238449,96.472504 258.221375,97.353783 262.251770,97.739975 
	C267.552216,98.247856 271.148224,95.012337 272.160858,90.476524 
	C272.985779,86.781425 272.841522,81.912086 271.025940,78.782265 
	C267.091278,71.999458 256.528046,70.450821 250.766449,74.815254 
	C244.878830,79.275146 244.397766,88.768875 250.234390,95.811501 
M181.273422,340.387207 
	C180.424957,341.075470 179.576492,341.763733 178.280731,342.814819 
	C191.248169,346.273560 193.323792,348.427765 190.504105,355.266693 
	C184.669571,352.383179 178.843399,349.503754 171.938278,346.091125 
	C171.566162,349.824738 171.042633,352.354004 171.119370,354.864899 
	C171.287811,360.378204 175.399612,365.366058 180.342636,366.481323 
	C186.968781,367.976379 192.833435,365.468140 195.698334,359.538147 
	C197.776672,355.236206 198.593033,347.922638 193.197327,344.721680 
	C189.782486,342.695831 185.745270,341.719177 181.273422,340.387207 
M227.108780,80.760864 
	C224.191345,79.876427 221.131897,78.213737 222.525299,74.990814 
	C223.478363,72.786423 226.567856,71.075615 229.074295,70.117363 
	C230.879517,69.427193 233.303543,70.526901 235.440521,70.462479 
	C236.545868,70.429153 237.627243,69.599930 238.719437,69.130295 
	C237.915451,68.232750 237.138184,66.593277 236.302948,66.563171 
	C232.189468,66.414948 228.011261,66.341927 223.949875,66.911972 
	C219.057922,67.598610 215.991135,71.913193 216.506531,76.439659 
	C217.037216,81.100220 220.857132,84.376297 225.596466,84.638206 
	C228.693176,84.809341 231.850082,85.161407 234.809052,86.020981 
	C236.297241,86.453293 238.505661,88.266289 238.439148,89.333420 
	C238.324280,91.175941 237.014893,94.100456 235.628952,94.484161 
	C231.902466,95.515869 227.873199,95.474571 223.958908,95.795555 
	C222.669128,95.901329 221.363373,95.812218 219.314545,95.812218 
	C224.102753,100.527138 232.571304,100.831055 238.510620,97.573708 
	C242.570877,95.346931 243.505859,91.989738 242.804092,87.895164 
	C242.147934,84.066528 239.525070,82.365250 235.798050,81.995468 
	C233.163742,81.734100 230.546783,81.297562 227.108780,80.760864 
M296.646545,368.541077 
	C300.183838,372.816315 306.350372,374.553650 312.451385,372.196014 
	C317.136871,370.385284 317.819946,365.860565 317.928467,361.372131 
	C317.944550,360.706512 317.947876,360.040039 317.935089,359.374359 
	C317.808807,352.792389 314.966309,349.002991 309.566376,348.209930 
	C300.760773,346.916687 295.163635,349.488556 292.854858,355.974335 
	C295.094818,357.789154 296.507812,357.686737 298.979614,355.423920 
	C301.224213,353.369141 305.028259,352.829529 308.256622,352.165985 
	C309.096100,351.993439 310.353424,353.853699 311.418793,354.780304 
	C310.588104,355.712250 309.933838,357.018555 308.894775,357.508301 
	C305.310333,359.197662 301.593262,360.606049 297.923523,362.113739 
	C294.896667,363.357269 294.269104,365.271271 296.646545,368.541077 
M115.059341,164.123749 
	C105.747444,168.446930 102.808067,174.461441 106.542763,182.589066 
	C107.648727,184.995880 109.726669,188.065201 111.920815,188.623398 
	C116.021034,189.666504 120.630356,189.702942 124.844818,189.023239 
	C129.076675,188.340744 132.193619,181.020111 131.996338,174.556122 
	C131.828125,169.044632 127.908669,166.862106 123.601555,165.309967 
	C121.165192,164.431992 118.439377,164.357224 115.059341,164.123749 
M347.002411,316.345337 
	C345.423584,318.424744 343.232269,320.286316 342.398346,322.630737 
	C340.848236,326.988617 343.324402,335.246460 347.452667,336.578308 
	C352.297821,338.141449 358.122772,338.677216 363.016327,337.518921 
	C367.969025,336.346649 370.234070,328.148163 368.732300,322.159576 
	C367.612885,317.695740 362.260468,313.491150 357.140442,313.760406 
	C353.928650,313.929352 350.771149,315.130585 347.002411,316.345337 
M118.708168,239.665909 
	C111.350662,237.526520 104.347282,233.902710 96.330994,234.230301 
	C101.335831,240.141251 109.231903,239.612228 116.169357,242.976532 
	C110.072807,248.364670 101.693626,249.850189 98.184280,257.227997 
	C108.561043,255.419281 115.918114,248.560547 125.747765,242.957336 
	C122.558319,241.401443 121.005722,240.644043 118.708168,239.665909 
M280.269958,377.494843 
	C279.873932,378.554779 279.477905,379.614685 279.081879,380.674622 
	C280.101776,380.750824 281.192963,381.095337 282.126801,380.847382 
	C284.080841,380.328491 286.089722,378.673615 287.828644,378.964569 
	C291.539307,379.585327 292.281738,377.115936 291.857513,375.028656 
	C290.617401,368.926544 288.818024,362.928497 286.978088,356.969849 
	C286.742523,356.207001 284.969116,355.918945 283.908142,355.410950 
	C283.486481,356.355225 282.629547,357.347137 282.726562,358.234680 
	C282.993866,360.679443 283.570282,363.103912 284.188812,365.493866 
	C285.371185,370.062439 284.385834,373.949188 280.269958,377.494843 
M357.441162,150.261520 
	C360.588959,148.508835 364.010437,147.107468 366.819000,144.919357 
	C370.813416,141.807358 374.429108,140.382370 378.862640,144.044708 
	C379.459900,144.538086 381.367462,143.445251 382.668274,143.086929 
	C380.045654,140.012939 377.468475,136.897110 374.733307,133.926773 
	C374.445343,133.614029 373.060822,133.922348 372.466125,134.341415 
	C367.057922,138.152542 361.662964,141.986877 356.374084,145.960693 
	C354.455078,147.402527 353.768860,149.145477 357.441162,150.261520 
M168.131546,119.339188 
	C168.943695,120.585526 169.528687,122.120628 170.636063,122.991661 
	C171.614899,123.761589 173.175751,123.791603 174.479630,124.148293 
	C174.575287,122.727989 174.989594,121.231354 174.672989,119.909813 
	C174.382248,118.696274 173.355362,117.633102 172.563873,116.569893 
	C168.411118,110.991341 163.673080,105.494469 171.941833,98.397484 
	C169.579437,97.916763 168.014923,97.079010 167.304443,97.544571 
	C164.373688,99.465027 161.637497,101.707520 159.001236,104.026543 
	C158.583527,104.393990 158.714615,105.988358 159.154495,106.629555 
	C161.955429,110.712372 164.914093,114.686966 168.131546,119.339188 
M379.131500,314.353851 
	C373.828613,310.690491 368.601410,306.908661 363.173187,303.441528 
	C361.692078,302.495544 359.606537,302.495972 356.482544,301.746277 
	C357.706482,304.070953 357.899170,305.003448 358.470428,305.435974 
	C365.660461,310.879944 372.869629,316.300690 380.169220,321.595978 
	C381.459747,322.532166 383.142059,323.079681 384.726074,323.408630 
	C385.852448,323.642548 387.117615,323.208160 388.320831,323.072052 
	C387.892029,322.001129 387.760712,320.563995 386.978271,319.928314 
	C384.680237,318.061310 382.123535,316.512726 379.131500,314.353851 
M270.274170,389.270874 
	C272.009460,388.686920 273.744751,388.102997 275.644867,387.463593 
	C274.687622,386.141632 273.196686,384.964569 273.064484,383.650757 
	C272.933624,382.350586 274.173981,380.912445 275.029053,379.068665 
	C272.926483,379.229340 271.476593,379.340118 270.901611,379.384064 
	C269.136444,377.852356 267.926849,376.802734 266.717255,375.753113 
	C265.604462,377.206940 264.491669,378.660767 263.113403,380.461426 
	C262.118378,380.461426 260.552063,380.461426 258.330811,380.461426 
	C259.695068,382.299530 260.703186,383.657837 261.457855,384.674622 
	C260.798767,386.588287 260.236115,388.222015 259.673462,389.855804 
	C261.460907,389.984009 263.248383,390.112244 265.019714,390.239319 
	C265.496460,390.903320 266.141876,391.802216 266.787292,392.701141 
	C267.919922,391.749359 269.052582,390.797577 270.274170,389.270874 
M186.993896,76.537231 
	C185.607346,78.999664 184.220795,81.462097 183.198715,83.277252 
	C184.200882,85.976418 185.191055,88.643288 186.273224,91.557892 
	C187.618561,90.680595 188.898468,89.845970 189.510559,89.446838 
	C191.625092,90.427757 193.096024,91.110100 194.566940,91.792442 
	C194.761551,90.027985 194.956161,88.263527 195.167191,86.350197 
	C196.309875,85.917793 197.629868,85.418289 199.606735,84.670219 
	C197.865936,83.547745 196.719025,82.808212 195.745193,82.180283 
	C196.468109,80.161591 197.071243,78.477417 197.558792,77.115974 
	C193.750031,76.813309 190.694916,76.570518 186.993896,76.537231 
M382.918640,271.553497 
	C388.229034,274.410492 391.342102,280.760773 397.633728,282.057739 
	C398.046600,281.555725 398.459473,281.053680 398.872345,280.551636 
	C394.282684,275.695892 389.693024,270.840149 384.926788,265.797546 
	C387.309692,265.136627 389.595795,264.502533 392.120483,263.802277 
	C388.218964,260.252136 380.707458,260.593323 374.568726,265.640259 
	C377.276733,267.554901 379.809174,269.345428 382.918640,271.553497 
M118.731964,196.633652 
	C109.377853,194.636032 100.270889,191.056259 90.236526,192.334473 
	C91.428383,193.693130 92.788467,194.748703 94.320236,195.151657 
	C96.851906,195.817627 99.518326,195.951599 102.085419,196.506546 
	C108.849579,197.968796 115.573814,199.623474 122.361687,200.958893 
	C123.264717,201.136566 124.444511,199.907379 126.668953,198.685486 
	C123.267975,197.819290 121.380409,197.338547 118.731964,196.633652 
M404.341125,261.637878 
	C406.605316,258.958984 404.080078,258.945038 402.654419,259.032593 
	C399.522736,259.224854 396.414795,259.804810 392.700653,260.307190 
	C396.522430,263.885773 400.148590,263.181885 404.341125,261.637878 
z"/>
<path fill="#1E142E" opacity="1.000000" stroke="none" 
	d="
M210.111771,352.983612 
	C216.173370,354.117004 216.431870,354.610291 217.112793,363.696411 
	C217.441452,368.082001 218.043289,372.447144 218.609390,377.626343 
	C219.991547,376.572876 221.044235,376.118835 221.561539,375.318695 
	C224.520859,370.741272 227.122375,365.911774 230.345215,361.536011 
	C231.579285,359.860474 234.134384,359.157959 236.578766,358.486908 
	C237.510147,362.255402 237.879440,365.560364 238.405365,368.840210 
	C239.449142,375.349335 240.579300,381.844543 241.673737,388.345520 
	C240.839645,389.748108 240.005554,391.150696 239.171478,392.553284 
	C238.070877,390.962738 236.242386,389.476227 235.997681,387.763397 
	C235.021210,380.928589 234.537598,374.023407 232.798340,366.725769 
	C230.006439,371.372192 227.244629,376.037109 224.407639,380.655853 
	C223.291702,382.472626 222.214798,384.394257 220.727890,385.873993 
	C219.730286,386.866852 217.771942,387.936310 216.736923,387.571503 
	C215.583664,387.165039 214.479080,385.258026 214.242645,383.854370 
	C213.337051,378.478302 212.805786,373.039825 212.096008,367.629730 
	C211.891678,366.072357 211.556931,364.532104 210.048630,362.699036 
	C207.209412,367.615234 204.315552,372.500946 201.549591,377.458038 
	C199.605316,380.942566 197.531708,383.942352 192.105835,381.975189 
	C194.160858,378.669800 196.031540,375.660950 198.368530,372.269348 
	C199.519592,370.239655 200.204315,368.592651 200.889023,366.945648 
	C200.889008,366.945648 200.960754,366.993927 201.298340,367.249878 
	C202.057968,366.308197 202.480011,365.110565 202.902054,363.912933 
	C202.902054,363.912933 202.995361,363.998352 203.240967,364.266113 
	C204.617401,362.008026 205.748245,359.482147 206.879089,356.956268 
	C206.879105,356.956268 206.879471,356.914520 207.120834,357.262665 
	C208.278732,356.068420 209.195251,354.526001 210.111771,352.983612 
z"/>
<path fill="#1E142E" opacity="1.000000" stroke="none" 
	d="
M110.912369,293.254089 
	C112.747383,286.319885 128.750412,281.896637 135.715836,289.149658 
	C140.441193,294.070129 144.225433,299.894409 148.936188,305.966217 
	C146.356812,307.733521 144.454575,309.183228 142.416107,310.405823 
	C136.459015,313.978668 130.348557,317.305450 124.493042,321.034607 
	C120.737656,323.426300 117.692337,323.485870 115.302361,319.503754 
	C113.170753,315.952148 111.292061,312.248749 109.205132,307.840240 
	C109.709785,302.463470 110.311081,297.858765 110.912369,293.254089 
M139.840927,302.431152 
	C138.460037,300.170868 137.405273,297.602722 135.626358,295.718109 
	C132.489456,292.394836 129.090408,289.005585 123.820953,289.966644 
	C115.413948,291.499969 110.904243,299.935913 114.332497,307.742798 
	C115.327332,310.008270 116.742409,312.085388 117.866341,314.298889 
	C119.124931,316.777588 120.695396,317.132355 123.095848,315.677094 
	C128.053604,312.671448 133.204880,309.979645 138.098251,306.877472 
	C139.177444,306.193298 139.514877,304.339111 139.840927,302.431152 
z"/>
<path fill="#1E142E" opacity="1.000000" stroke="none" 
	d="
M293.767609,81.936424 
	C287.155640,78.888931 285.268677,79.798935 283.776367,86.564003 
	C282.781891,91.072220 281.622070,95.543961 280.534851,100.037926 
	C276.474121,100.927170 274.528412,100.377213 276.102325,95.721466 
	C277.312500,92.141716 278.213715,88.374786 278.593262,84.624397 
	C278.873260,81.857864 278.090393,78.983765 277.708344,75.492622 
	C278.699371,74.210266 280.365417,72.056450 282.029266,69.900963 
	C284.093658,67.226631 291.164948,65.932503 293.921692,67.919167 
	C294.667969,68.456978 294.868469,69.752098 295.319458,70.699615 
	C294.487762,70.959442 293.466339,71.667694 292.854156,71.408669 
	C287.603027,69.186783 287.456299,72.870918 286.717712,76.532501 
	C290.954987,76.951218 294.934479,80.380920 298.764221,75.498558 
	C299.480652,74.585220 302.359283,75.367897 304.240082,75.367897 
	C303.887421,75.835381 303.534760,76.302864 303.182098,76.770348 
	C304.689728,79.423164 306.197388,82.075981 307.817200,84.926163 
	C307.982422,84.698792 307.778107,85.197495 307.605164,85.186844 
	C297.695648,84.576790 299.586761,93.779938 296.567474,98.794281 
	C296.196960,99.409592 298.006104,101.790543 299.254303,102.795258 
	C300.417786,103.731766 302.180023,103.924332 303.896088,104.519806 
	C300.718597,107.591484 297.433777,107.261093 292.548157,103.293564 
	C293.487061,97.093903 294.667297,91.366112 296.301239,85.770805 
	C297.102631,83.026451 297.112183,81.579979 293.767609,81.936424 
z"/>
<path fill="#241837" opacity="1.000000" stroke="none" 
	d="
M327.070496,105.365761 
	C326.009979,105.087173 324.563599,104.697838 323.758514,105.247612 
	C321.176086,107.011078 319.020691,109.462334 316.321136,110.967911 
	C314.762604,111.837120 311.990173,112.159821 310.657776,111.316498 
	C309.476685,110.568970 308.866119,107.755333 309.160095,106.053520 
	C310.167053,100.224312 311.578705,94.455673 313.081451,88.728325 
	C313.433411,87.387016 314.750580,86.298973 315.623657,85.094421 
	C316.425201,86.530067 318.006104,88.033478 317.888184,89.389168 
	C317.463593,94.272186 316.466156,99.105400 315.615936,104.387177 
	C322.768127,103.215965 325.623993,92.757629 334.737640,96.119400 
	C333.488800,102.049606 332.286804,107.757362 331.012665,113.807793 
	C338.532806,113.603622 340.672180,102.786293 348.454803,104.564758 
	C348.846252,105.213249 349.237671,105.861740 349.629089,106.510231 
	C343.396149,111.568047 337.366516,116.914436 330.819702,121.526741 
	C328.536804,123.135056 326.531342,121.072388 326.615509,118.060112 
	C326.730743,113.934883 326.856812,109.809967 327.070496,105.365761 
z"/>
<path fill="#171025" opacity="1.000000" stroke="none" 
	d="
M411.314362,218.951447 
	C406.312469,224.875961 399.623901,225.628571 392.797058,224.063492 
	C386.224731,222.556732 381.820831,218.142944 380.578217,211.221100 
	C379.906586,207.479935 379.116852,203.693909 379.119446,199.928635 
	C379.120575,198.307205 380.778656,195.489426 382.054047,195.258438 
	C391.153564,193.610336 400.348633,192.489975 410.306213,191.371643 
	C411.528656,192.343063 412.186676,193.100204 412.352539,193.953079 
	C413.987183,202.359802 415.412689,210.776947 411.314362,218.951447 
M385.257690,207.193344 
	C385.510986,208.155609 385.839600,209.105103 386.005035,210.082245 
	C386.897400,215.352936 389.946625,219.409073 394.965057,220.305527 
	C400.218140,221.243881 406.102631,219.370697 407.747559,213.984009 
	C409.278748,208.969788 408.372498,203.180191 408.242249,197.739044 
	C408.229614,197.210419 406.086365,196.230835 404.997131,196.313812 
	C399.200470,196.755417 393.427277,197.496170 387.640259,198.076660 
	C384.855835,198.355972 383.841156,199.747299 384.509186,202.469086 
	C384.822510,203.745590 384.975555,205.061417 385.257690,207.193344 
z"/>
<path fill="#1E142E" opacity="1.000000" stroke="none" 
	d="
M156.318436,359.380066 
	C153.819244,361.526276 151.974030,361.503662 150.547592,358.614166 
	C152.962921,355.453247 155.319962,352.368591 156.984756,350.189911 
	C153.113129,347.235016 148.912903,345.293701 146.643616,342.015656 
	C142.760834,336.406921 144.355255,330.303101 149.464691,326.192596 
	C154.621201,322.044189 162.024826,322.007599 166.838898,326.182556 
	C169.542389,328.527100 172.570328,330.684540 174.587906,333.537445 
	C175.354111,334.620850 174.233200,337.835999 173.046631,339.357574 
	C169.090897,344.430115 164.691650,349.155060 160.514603,354.057678 
	C159.128601,355.684479 157.900421,357.445709 156.318436,359.380066 
M164.996201,340.272034 
	C168.205078,336.481354 167.427139,332.950836 164.153870,329.734863 
	C160.712967,326.354218 157.795853,326.510162 153.349243,330.104553 
	C148.868820,333.726288 149.015320,338.110229 153.787048,343.203918 
	C157.331497,346.987518 158.932358,346.761383 163.402267,341.853638 
	C163.738510,341.484467 164.101593,341.139771 164.996201,340.272034 
z"/>
<path fill="#171025" opacity="1.000000" stroke="none" 
	d="
M346.451782,350.844757 
	C344.759918,351.782593 343.048615,352.355988 342.109894,353.541260 
	C337.959625,358.781616 331.885925,361.161865 326.804443,359.230957 
	C321.321320,357.147369 317.786713,351.334900 318.113525,344.939270 
	C318.387665,339.573730 321.666290,335.842529 327.574005,335.183502 
	C332.217834,334.665436 331.922180,332.684753 330.009216,329.654297 
	C329.478668,328.813812 328.671326,328.077911 328.384186,327.169739 
	C327.902069,325.644775 327.735199,324.020203 327.435669,322.437531 
	C329.191772,323.017273 331.654816,323.058167 332.579742,324.271515 
	C336.279938,329.125854 339.545837,334.316040 342.883789,339.439697 
	C344.603424,342.079285 346.288910,344.766937 347.651825,347.595703 
	C348.010284,348.339691 347.110138,349.690063 346.451782,350.844757 
M339.559509,350.646729 
	C340.754547,343.020660 336.421021,336.710663 330.606506,338.241394 
	C328.208435,338.872742 325.035889,341.272369 324.512207,343.426117 
	C322.972076,349.760162 324.819244,353.862915 328.996796,355.206299 
	C333.195801,356.556519 336.775970,355.210175 339.559509,350.646729 
z"/>
<path fill="#171025" opacity="1.000000" stroke="none" 
	d="
M144.512878,155.313614 
	C142.581223,157.628326 140.856766,159.635590 138.697433,162.149048 
	C141.229477,164.168228 143.752838,166.180511 147.755005,169.372070 
	C144.895355,169.617722 142.960663,170.417068 141.887482,169.775452 
	C133.659607,164.856323 125.550255,159.730698 117.566277,154.425156 
	C116.807678,153.921036 116.637939,151.530685 117.106308,150.390411 
	C118.054489,148.081970 119.911346,146.149933 120.882950,143.847260 
	C122.715591,139.503922 125.567726,136.732773 130.368134,136.111374 
	C136.829102,135.275040 141.867584,137.766556 145.313675,143.026199 
	C147.872833,146.932114 148.097336,151.171738 144.512878,155.313614 
M128.714737,155.954071 
	C132.657440,158.671906 136.275208,158.412506 139.300812,155.195023 
	C142.381454,151.919006 142.704071,147.010681 140.049042,143.811356 
	C136.915482,140.035400 132.403580,139.195557 128.713684,141.701401 
	C122.663795,145.809952 122.509308,149.497375 128.714737,155.954071 
z"/>
<path fill="#1E142E" opacity="1.000000" stroke="none" 
	d="
M111.020630,221.546204 
	C112.275688,227.271988 115.111908,223.848511 115.844360,222.279785 
	C117.381691,218.987244 119.468742,215.369125 116.828896,211.499008 
	C116.317848,210.749802 116.184776,209.742783 115.877335,208.854691 
	C116.155853,208.369766 116.434372,207.884827 116.712883,207.399902 
	C118.542442,208.305878 121.118027,208.732117 122.065445,210.205399 
	C125.251801,215.160324 122.786064,224.260712 117.711075,228.043823 
	C113.620125,231.093399 103.797012,230.050552 99.970718,226.160477 
	C95.777916,221.897720 94.854996,213.746445 99.203857,209.278336 
	C101.505005,206.914108 105.806580,206.363144 109.324104,205.454407 
	C109.880669,205.310623 111.820137,207.605148 111.828659,208.781693 
	C111.858459,212.898270 111.322739,217.018921 111.020630,221.546204 
M105.217735,210.501373 
	C99.612083,214.705734 99.855736,220.702148 107.278160,224.046265 
	C106.727760,218.949936 106.262207,214.639282 105.217735,210.501373 
z"/>
<path fill="#241837" opacity="1.000000" stroke="none" 
	d="
M114.945999,282.674683 
	C108.675613,283.413910 105.630127,279.311371 103.456947,275.178986 
	C101.563934,271.579346 100.772827,266.924225 104.107338,263.515564 
	C106.016823,261.563599 108.997681,259.726776 111.536896,259.670349 
	C113.083206,259.636047 115.200882,262.863617 116.182945,265.025299 
	C117.748428,268.471222 118.581230,272.249969 119.837616,276.250153 
	C124.850555,271.610291 124.874008,266.503052 120.701408,262.454346 
	C119.867012,261.644714 119.431442,260.424103 118.811974,259.392975 
	C120.139099,259.105347 121.817589,258.172607 122.720314,258.664276 
	C124.607597,259.692139 126.785530,261.155548 127.615379,262.994507 
	C132.122223,272.981750 126.974892,281.037659 114.945999,282.674683 
M110.131012,276.372253 
	C111.558640,277.096039 112.986259,277.819855 114.413879,278.543640 
	C114.354645,277.022217 114.602638,275.407379 114.174095,273.998291 
	C113.193550,270.774078 111.882378,267.650421 110.677452,264.410583 
	C106.276039,267.562836 106.093864,270.331421 110.131012,276.372253 
z"/>
<path fill="#241837" opacity="1.000000" stroke="none" 
	d="
M393.025421,162.367935 
	C392.943878,164.784607 393.037201,166.802567 392.726593,168.756317 
	C392.142517,172.430176 389.879730,175.457626 386.219727,174.877060 
	C383.889252,174.507385 381.464233,171.817230 380.009003,169.567657 
	C378.089447,166.600388 377.079041,163.044998 375.582062,159.516754 
	C371.727081,160.969086 370.988586,163.597595 371.901337,166.423172 
	C372.633881,168.690872 374.299561,170.660797 375.575256,172.748108 
	C376.481079,174.230133 377.427063,175.687607 378.355103,177.156036 
	C376.460449,176.805801 374.158722,177.023590 372.741119,176.007660 
	C366.385437,171.452805 364.667511,161.855988 368.991333,156.838867 
	C373.761444,151.303940 385.503021,150.735229 390.634338,156.095383 
	C391.987488,157.508911 392.252991,159.963638 393.025421,162.367935 
M380.464203,159.408234 
	C382.056061,162.530884 383.647919,165.653549 385.239777,168.776199 
	C385.876099,168.719345 386.512421,168.662476 387.148712,168.605621 
	C387.557465,166.570450 388.940521,163.979233 388.164795,162.620071 
	C386.711609,160.073837 384.008087,158.241150 381.824677,156.111664 
	C381.311523,156.990692 380.798370,157.869705 380.464203,159.408234 
z"/>
<path fill="#241837" opacity="1.000000" stroke="none" 
	d="
M150.548096,130.532410 
	C149.711716,131.972198 149.176025,133.227448 148.640335,134.482697 
	C149.969131,134.780075 151.786072,135.776566 152.539764,135.250290 
	C155.368423,133.275177 157.874252,130.829910 160.451721,128.506088 
	C161.797226,127.292992 163.039886,125.965836 164.778915,124.245003 
	C166.298477,129.462723 164.031601,135.111526 160.187759,137.111618 
	C151.722336,141.516510 138.989395,137.983719 138.094284,126.326828 
	C137.422699,117.580894 147.384842,112.967461 154.222992,114.594872 
	C154.377029,114.631531 154.501038,114.780853 154.653870,114.838135 
	C163.130402,118.015678 163.104507,117.988159 156.527603,124.309586 
	C154.538071,126.221848 152.736481,128.329651 150.548096,130.532410 
M149.517685,124.976631 
	C151.223648,123.053139 152.929611,121.129646 154.778641,119.044853 
	C150.271301,116.085983 147.285568,118.892014 145.173325,121.157593 
	C143.573013,122.874046 143.615692,126.122299 142.927231,128.688904 
	C143.523071,128.930984 144.118912,129.173065 144.714752,129.415146 
	C146.150803,128.099762 147.586853,126.784355 149.517685,124.976631 
M150.484879,115.572327 
	C150.484879,115.572327 150.431717,115.480705 150.484879,115.572327 
z"/>
<path fill="#1E142E" opacity="1.000000" stroke="none" 
	d="
M379.043030,288.923065 
	C379.225067,287.641571 379.407104,286.360077 379.654175,284.620728 
	C371.770569,285.199677 371.044830,291.710358 368.993469,296.910858 
	C365.487061,295.109650 365.033447,292.858124 366.950806,287.857819 
	C369.687622,280.720245 377.649048,277.953888 385.178070,281.524384 
	C392.015656,284.766968 395.057648,292.252258 391.878387,298.011475 
	C388.873474,303.454834 385.382782,305.220734 379.375244,304.467804 
	C377.753967,304.264618 376.099213,304.328064 374.036499,303.785889 
	C374.212646,301.424866 374.723755,299.513031 375.431671,297.677063 
	C376.566986,294.732666 377.832550,291.838470 379.043030,288.923065 
M387.794189,293.234711 
	C387.325348,291.394531 386.856537,289.554352 386.387695,287.714172 
	C385.856537,287.734283 385.325409,287.754364 384.794250,287.774445 
	C382.696564,292.177856 380.598846,296.581268 378.283539,301.441528 
	C383.918274,301.350739 383.918274,301.350739 387.794189,293.234711 
z"/>
<path fill="#1E142E" opacity="1.000000" stroke="none" 
	d="
M385.065002,232.030579 
	C394.591736,227.215897 405.471588,229.715698 407.456360,238.155380 
	C409.229645,245.695496 404.938568,252.631973 397.131653,253.296204 
	C395.644501,253.422745 394.166504,253.657608 392.307404,253.434845 
	C392.377136,247.219025 392.850922,241.412781 393.255981,235.601730 
	C393.402039,233.506699 393.326752,233.501450 391.137909,233.958984 
	C384.014679,237.893967 386.007843,243.881592 386.906433,249.945724 
	C382.482880,249.172745 380.548218,245.777939 381.285583,241.052444 
	C381.662079,238.639832 382.370270,236.278992 382.928528,233.894745 
	C382.928528,233.894745 383.001312,233.952957 383.194092,234.265106 
	C383.946259,233.728378 384.505646,232.879486 385.065002,232.030579 
M396.428406,244.594681 
	C396.196014,246.466858 395.539398,249.668304 398.583344,248.117706 
	C400.672729,247.053345 402.157837,243.402985 402.467468,240.740433 
	C402.671265,238.988266 400.303070,236.936996 399.086578,235.019669 
	C398.582855,235.262604 398.079132,235.505554 397.575409,235.748505 
	C397.320526,238.451355 397.065643,241.154221 396.428406,244.594681 
z"/>
<path fill="#1E142E" opacity="1.000000" stroke="none" 
	d="
M249.980591,95.571930 
	C244.397766,88.768875 244.878830,79.275146 250.766449,74.815254 
	C256.528046,70.450821 267.091278,71.999458 271.025940,78.782265 
	C272.841522,81.912086 272.985779,86.781425 272.160858,90.476524 
	C271.148224,95.012337 267.552216,98.247856 262.251770,97.739975 
	C258.221375,97.353783 254.238449,96.472504 249.980591,95.571930 
M252.627777,90.721939 
	C253.209885,91.311462 253.733307,91.977295 254.383942,92.477707 
	C257.814514,95.116219 261.638000,94.806984 264.587341,91.700768 
	C267.522522,88.609428 267.942352,81.709167 264.989929,78.928368 
	C262.080933,76.188469 258.704010,75.470558 255.081024,78.100189 
	C250.644180,81.320503 250.652634,85.444221 252.627777,90.721939 
z"/>
<path fill="#171025" opacity="1.000000" stroke="none" 
	d="
M181.630310,340.329590 
	C185.745270,341.719177 189.782486,342.695831 193.197327,344.721680 
	C198.593033,347.922638 197.776672,355.236206 195.698334,359.538147 
	C192.833435,365.468140 186.968781,367.976379 180.342636,366.481323 
	C175.399612,365.366058 171.287811,360.378204 171.119370,354.864899 
	C171.042633,352.354004 171.566162,349.824738 171.938278,346.091125 
	C178.843399,349.503754 184.669571,352.383179 190.504105,355.266693 
	C193.323792,348.427765 191.248169,346.273560 178.280731,342.814819 
	C179.576492,341.763733 180.424957,341.075470 181.630310,340.329590 
M179.713303,353.892761 
	C178.683289,353.506836 177.653290,353.120911 176.225891,352.586090 
	C175.344925,357.469818 177.338715,360.783783 181.261810,362.492676 
	C184.221985,363.782135 187.060516,362.672394 188.854996,358.846649 
	C185.836166,357.221375 182.978271,355.682770 179.713303,353.892761 
z"/>
<path fill="#171025" opacity="1.000000" stroke="none" 
	d="
M227.515442,80.850052 
	C230.546783,81.297562 233.163742,81.734100 235.798050,81.995468 
	C239.525070,82.365250 242.147934,84.066528 242.804092,87.895164 
	C243.505859,91.989738 242.570877,95.346931 238.510620,97.573708 
	C232.571304,100.831055 224.102753,100.527138 219.314545,95.812218 
	C221.363373,95.812218 222.669128,95.901329 223.958908,95.795555 
	C227.873199,95.474571 231.902466,95.515869 235.628952,94.484161 
	C237.014893,94.100456 238.324280,91.175941 238.439148,89.333420 
	C238.505661,88.266289 236.297241,86.453293 234.809052,86.020981 
	C231.850082,85.161407 228.693176,84.809341 225.596466,84.638206 
	C220.857132,84.376297 217.037216,81.100220 216.506531,76.439659 
	C215.991135,71.913193 219.057922,67.598610 223.949875,66.911972 
	C228.011261,66.341927 232.189468,66.414948 236.302948,66.563171 
	C237.138184,66.593277 237.915451,68.232750 238.719437,69.130295 
	C237.627243,69.599930 236.545868,70.429153 235.440521,70.462479 
	C233.303543,70.526901 230.879517,69.427193 229.074295,70.117363 
	C226.567856,71.075615 223.478363,72.786423 222.525299,74.990814 
	C221.131897,78.213737 224.191345,79.876427 227.515442,80.850052 
z"/>
<path fill="#241837" opacity="1.000000" stroke="none" 
	d="
M341.968842,121.049957 
	C348.394287,120.373795 353.504974,123.011703 357.618378,127.630630 
	C361.565186,124.460350 361.329437,121.713608 357.206604,119.148270 
	C354.869934,117.694336 352.517670,116.265503 349.184021,114.218422 
	C355.957764,112.853111 364.230438,116.977966 365.476990,121.898842 
	C366.037659,124.112122 365.435272,127.308418 364.111389,129.170441 
	C361.163330,133.316788 357.608826,137.094635 353.900085,140.597656 
	C352.845123,141.594116 349.962677,141.900879 348.698334,141.171600 
	C346.057404,139.648300 343.936127,137.224075 341.399963,134.670105 
	C340.437012,130.407089 339.675446,126.643898 338.913879,122.880707 
	C338.913879,122.880707 338.964539,122.987450 339.112183,123.287025 
	C340.162811,122.741058 341.065826,121.895508 341.968842,121.049957 
M354.411713,132.427490 
	C352.373444,129.979645 350.628510,127.172890 348.207153,125.193779 
	C346.149292,123.511803 342.632263,125.857170 343.411957,128.366531 
	C344.083710,130.528366 345.681610,133.095352 347.572266,133.976746 
	C349.227356,134.748322 351.859314,133.424454 354.411713,132.427490 
z"/>
<path fill="#171025" opacity="1.000000" stroke="none" 
	d="
M296.460205,368.238464 
	C294.269104,365.271271 294.896667,363.357269 297.923523,362.113739 
	C301.593262,360.606049 305.310333,359.197662 308.894775,357.508301 
	C309.933838,357.018555 310.588104,355.712250 311.418823,354.780304 
	C310.353424,353.853699 309.096100,351.993439 308.256622,352.165985 
	C305.028259,352.829529 301.224213,353.369141 298.979614,355.423920 
	C296.507812,357.686737 295.094818,357.789154 292.854858,355.974335 
	C295.163635,349.488556 300.760773,346.916687 309.566376,348.209930 
	C314.966309,349.002991 317.808807,352.792389 317.935089,359.374359 
	C317.947876,360.040039 317.944550,360.706512 317.928467,361.372131 
	C317.819946,365.860565 317.136871,370.385284 312.451385,372.196014 
	C306.350372,374.553650 300.183838,372.816315 296.460205,368.238464 
M314.022186,361.583344 
	C310.950836,360.094391 304.534729,362.155273 301.078979,365.740784 
	C304.492401,370.588531 308.237518,370.946564 311.727081,366.592010 
	C312.732361,365.337524 313.231873,363.677643 314.022186,361.583344 
z"/>
<path fill="#1E142E" opacity="1.000000" stroke="none" 
	d="
M115.451645,164.022217 
	C118.439377,164.357224 121.165192,164.431992 123.601555,165.309967 
	C127.908669,166.862106 131.828125,169.044632 131.996338,174.556122 
	C132.193619,181.020111 129.076675,188.340744 124.844818,189.023239 
	C120.630356,189.702942 116.021034,189.666504 111.920815,188.623398 
	C109.726669,188.065201 107.648727,184.995880 106.542763,182.589066 
	C102.808067,174.461441 105.747444,168.446930 115.451645,164.022217 
M112.653252,171.211243 
	C111.870468,173.489258 110.255920,175.853500 110.481194,178.027039 
	C110.925385,182.312836 113.691109,185.554688 118.191795,185.925339 
	C123.274269,186.343903 125.242355,182.130310 127.087646,178.407425 
	C129.077164,174.393570 125.882278,172.066406 123.396042,170.095993 
	C120.085129,167.471970 116.393082,167.061447 112.653252,171.211243 
z"/>
<path fill="#1E142E" opacity="1.000000" stroke="none" 
	d="
M347.295837,316.106995 
	C350.771149,315.130585 353.928650,313.929352 357.140442,313.760406 
	C362.260468,313.491150 367.612885,317.695740 368.732300,322.159576 
	C370.234070,328.148163 367.969025,336.346649 363.016327,337.518921 
	C358.122772,338.677216 352.297821,338.141449 347.452667,336.578308 
	C343.324402,335.246460 340.848236,326.988617 342.398346,322.630737 
	C343.232269,320.286316 345.423584,318.424744 347.295837,316.106995 
M347.857880,327.191315 
	C348.570709,328.847900 348.992737,330.723785 350.047546,332.122467 
	C354.260468,337.708893 360.268738,336.836243 363.187317,330.426086 
	C364.992859,326.460510 364.336395,322.664764 361.332886,320.017792 
	C359.497620,318.400391 356.142822,317.208313 353.856262,317.683075 
	C349.623016,318.562103 347.686371,322.179474 347.857880,327.191315 
z"/>
<path fill="#1E142E" opacity="1.000000" stroke="none" 
	d="
M119.080643,239.776276 
	C121.005722,240.644043 122.558319,241.401443 125.747765,242.957336 
	C115.918114,248.560547 108.561043,255.419281 98.184280,257.227997 
	C101.693626,249.850189 110.072807,248.364670 116.169357,242.976532 
	C109.231903,239.612228 101.335831,240.141251 96.330994,234.230301 
	C104.347282,233.902710 111.350662,237.526520 119.080643,239.776276 
z"/>
<path fill="#1E142E" opacity="1.000000" stroke="none" 
	d="
M280.556885,377.312775 
	C284.385834,373.949188 285.371185,370.062439 284.188812,365.493866 
	C283.570282,363.103912 282.993866,360.679443 282.726562,358.234680 
	C282.629547,357.347137 283.486481,356.355225 283.908142,355.410950 
	C284.969116,355.918945 286.742523,356.207001 286.978088,356.969849 
	C288.818024,362.928497 290.617401,368.926544 291.857513,375.028656 
	C292.281738,377.115936 291.539307,379.585327 287.828644,378.964569 
	C286.089722,378.673615 284.080841,380.328491 282.126801,380.847382 
	C281.192963,381.095337 280.101776,380.750824 279.081879,380.674622 
	C279.477905,379.614685 279.873932,378.554779 280.556885,377.312775 
z"/>
<path fill="#1E142E" opacity="1.000000" stroke="none" 
	d="
M357.115601,150.291656 
	C353.768860,149.145477 354.455078,147.402527 356.374084,145.960693 
	C361.662964,141.986877 367.057922,138.152542 372.466125,134.341415 
	C373.060822,133.922348 374.445343,133.614029 374.733307,133.926773 
	C377.468475,136.897110 380.045654,140.012939 382.668274,143.086914 
	C381.367462,143.445251 379.459900,144.538086 378.862640,144.044708 
	C374.429108,140.382370 370.813416,141.807358 366.819000,144.919357 
	C364.010437,147.107468 360.588959,148.508835 357.115601,150.291656 
z"/>
<path fill="#241837" opacity="1.000000" stroke="none" 
	d="
M167.976166,119.018204 
	C164.914093,114.686966 161.955429,110.712372 159.154495,106.629555 
	C158.714615,105.988358 158.583527,104.393990 159.001236,104.026543 
	C161.637497,101.707520 164.373688,99.465027 167.304443,97.544571 
	C168.014923,97.079010 169.579437,97.916763 171.941833,98.397484 
	C163.673080,105.494469 168.411118,110.991341 172.563873,116.569893 
	C173.355362,117.633102 174.382248,118.696274 174.672989,119.909813 
	C174.989594,121.231354 174.575287,122.727989 174.479630,124.148300 
	C173.175751,123.791603 171.614899,123.761589 170.636063,122.991661 
	C169.528687,122.120628 168.943695,120.585526 167.976166,119.018204 
z"/>
<path fill="#1E142E" opacity="1.000000" stroke="none" 
	d="
M379.399780,314.596680 
	C382.123535,316.512726 384.680237,318.061310 386.978271,319.928314 
	C387.760712,320.563995 387.892029,322.001129 388.320831,323.072052 
	C387.117615,323.208160 385.852448,323.642548 384.726074,323.408630 
	C383.142059,323.079681 381.459747,322.532166 380.169220,321.595978 
	C372.869629,316.300690 365.660461,310.879944 358.470428,305.435974 
	C357.899170,305.003448 357.706482,304.070953 356.482544,301.746277 
	C359.606537,302.495972 361.692078,302.495544 363.173187,303.441528 
	C368.601410,306.908661 373.828613,310.690491 379.399780,314.596680 
z"/>
<path fill="#241837" opacity="1.000000" stroke="none" 
	d="
M270.229706,389.558350 
	C269.052582,390.797577 267.919922,391.749359 266.787292,392.701111 
	C266.141876,391.802216 265.496460,390.903320 265.019714,390.239319 
	C263.248383,390.112244 261.460907,389.984009 259.673462,389.855774 
	C260.236115,388.222015 260.798767,386.588287 261.457855,384.674622 
	C260.703186,383.657837 259.695068,382.299530 258.330811,380.461426 
	C260.552063,380.461426 262.118378,380.461426 263.113403,380.461426 
	C264.491669,378.660767 265.604462,377.206940 266.717255,375.753113 
	C267.926849,376.802734 269.136444,377.852356 270.901611,379.384064 
	C271.476593,379.340118 272.926483,379.229340 275.029053,379.068665 
	C274.173981,380.912445 272.933624,382.350586 273.064484,383.650757 
	C273.196686,384.964569 274.687622,386.141632 275.644867,387.463593 
	C273.744751,388.102997 272.009460,388.686920 270.229706,389.558350 
z"/>
<path fill="#241837" opacity="1.000000" stroke="none" 
	d="
M187.316833,76.432480 
	C190.694916,76.570518 193.750031,76.813309 197.558792,77.115974 
	C197.071243,78.477417 196.468109,80.161591 195.745193,82.180283 
	C196.719025,82.808212 197.865936,83.547745 199.606735,84.670219 
	C197.629868,85.418289 196.309875,85.917793 195.167191,86.350197 
	C194.956161,88.263527 194.761551,90.027985 194.566940,91.792442 
	C193.096024,91.110100 191.625092,90.427757 189.510559,89.446838 
	C188.898468,89.845970 187.618561,90.680595 186.273224,91.557892 
	C185.191055,88.643288 184.200882,85.976418 183.198715,83.277252 
	C184.220795,81.462097 185.607346,78.999664 187.316833,76.432480 
z"/>
<path fill="#171025" opacity="1.000000" stroke="none" 
	d="
M382.630127,271.344727 
	C379.809174,269.345428 377.276733,267.554901 374.568726,265.640259 
	C380.707458,260.593323 388.218964,260.252136 392.120483,263.802277 
	C389.595795,264.502533 387.309692,265.136627 384.926788,265.797546 
	C389.693024,270.840149 394.282684,275.695892 398.872345,280.551636 
	C398.459473,281.053680 398.046600,281.555725 397.633728,282.057739 
	C391.342102,280.760773 388.229034,274.410492 382.630127,271.344727 
z"/>
<path fill="#171025" opacity="1.000000" stroke="none" 
	d="
M119.112404,196.745728 
	C121.380409,197.338547 123.267975,197.819290 126.668953,198.685486 
	C124.444511,199.907379 123.264717,201.136566 122.361687,200.958893 
	C115.573814,199.623474 108.849579,197.968796 102.085419,196.506546 
	C99.518326,195.951599 96.851906,195.817627 94.320236,195.151657 
	C92.788467,194.748703 91.428383,193.693130 90.236526,192.334473 
	C100.270889,191.056259 109.377853,194.636032 119.112404,196.745728 
z"/>
<path fill="#72D2D2" opacity="1.000000" stroke="none" 
	d="
M241.632538,387.969543 
	C240.579300,381.844543 239.449142,375.349335 238.405365,368.840210 
	C237.879440,365.560364 237.510147,362.255402 236.967224,358.531189 
	C237.810684,361.495117 239.129501,364.836548 239.622482,368.295685 
	C240.534058,374.691925 240.961945,381.157104 241.632538,387.969543 
z"/>
<path fill="#72D2D2" opacity="1.000000" stroke="none" 
	d="
M411.563293,218.732056 
	C415.412689,210.776947 413.987183,202.359802 412.352539,193.953079 
	C412.186676,193.100204 411.528656,192.343063 410.764404,191.384247 
	C411.322388,191.827484 412.893738,192.323837 413.004272,193.044312 
	C414.316071,201.594879 418.091919,210.315186 411.563293,218.732056 
z"/>
<path fill="#72D2D2" opacity="1.000000" stroke="none" 
	d="
M293.893188,82.290543 
	C297.112183,81.579979 297.102631,83.026451 296.301239,85.770805 
	C294.667297,91.366112 293.487061,97.093903 292.326965,103.035751 
	C288.160065,99.942909 291.153442,96.117546 291.881653,92.458115 
	C292.534943,89.175201 293.301910,85.914925 293.893188,82.290543 
z"/>
<path fill="#72D2D2" opacity="1.000000" stroke="none" 
	d="
M391.456726,234.164871 
	C393.326752,233.501450 393.402039,233.506699 393.255981,235.601730 
	C392.850922,241.412781 392.377136,247.219025 391.941589,253.472076 
	C388.314087,247.433990 390.329315,240.899796 391.456726,234.164871 
z"/>
<path fill="#171025" opacity="1.000000" stroke="none" 
	d="
M404.085449,261.841095 
	C400.148590,263.181885 396.522430,263.885773 392.700653,260.307190 
	C396.414795,259.804810 399.522736,259.224854 402.654419,259.032593 
	C404.080078,258.945038 406.605316,258.958984 404.085449,261.841095 
z"/>
<path fill="#72D2D2" opacity="1.000000" stroke="none" 
	d="
M382.577393,234.020874 
	C382.370270,236.278992 381.662079,238.639832 381.285583,241.052444 
	C380.548218,245.777939 382.482880,249.172745 386.631042,250.187744 
	C382.122131,251.281845 378.272400,247.492630 379.165680,241.976746 
	C379.603607,239.272522 381.170380,236.751129 382.577393,234.020874 
z"/>
<path fill="#72D2D2" opacity="1.000000" stroke="none" 
	d="
M378.682007,288.993164 
	C377.832550,291.838470 376.566986,294.732666 375.431671,297.677063 
	C374.723755,299.513031 374.212646,301.424866 373.773315,303.591492 
	C369.823792,303.247192 371.868073,300.467133 372.599274,298.909546 
	C374.206177,295.486481 376.379089,292.329102 378.682007,288.993164 
z"/>
<path fill="#72D2D2" opacity="1.000000" stroke="none" 
	d="
M110.530914,293.161926 
	C110.311081,297.858765 109.709785,302.463470 109.060432,307.521118 
	C105.618919,303.300110 106.030701,297.902618 110.530914,293.161926 
z"/>
<path fill="#72D2D2" opacity="1.000000" stroke="none" 
	d="
M338.547058,123.026573 
	C339.675446,126.643898 340.437012,130.407089 341.124146,134.563263 
	C336.679169,131.101135 335.834106,127.630783 338.547058,123.026573 
z"/>
<path fill="#72D2D2" opacity="1.000000" stroke="none" 
	d="
M206.540527,357.047424 
	C205.748245,359.482147 204.617401,362.008026 203.190460,364.227844 
	C203.996902,361.660736 205.099442,359.399658 206.540527,357.047424 
z"/>
<path fill="#72D2D2" opacity="1.000000" stroke="none" 
	d="
M200.556107,367.041504 
	C200.204315,368.592651 199.519592,370.239655 198.458572,371.930115 
	C198.795914,370.361481 199.509537,368.749420 200.556107,367.041504 
z"/>
<path fill="#72D2D2" opacity="1.000000" stroke="none" 
	d="
M209.760956,353.010895 
	C209.195251,354.526001 208.278732,356.068420 207.140976,357.257202 
	C207.749878,355.615112 208.580002,354.326630 209.760956,353.010895 
z"/>
<path fill="#72D2D2" opacity="1.000000" stroke="none" 
	d="
M202.578339,364.000000 
	C202.480011,365.110565 202.057968,366.308197 201.257599,367.224915 
	C201.337738,365.991699 201.796188,365.039398 202.578339,364.000000 
z"/>
<path fill="#72D2D2" opacity="1.000000" stroke="none" 
	d="
M384.692261,231.991028 
	C384.505646,232.879486 383.946259,233.728378 383.150269,234.249634 
	C383.382294,233.265152 383.850891,232.608322 384.692261,231.991028 
z"/>
<path fill="#72D2D2" opacity="1.000000" stroke="none" 
	d="
M341.634766,121.007111 
	C341.065826,121.895508 340.162811,122.741058 339.094879,123.231667 
	C339.720184,122.239250 340.510437,121.601761 341.634766,121.007111 
z"/>
<path fill="#000000" opacity="1.000000" stroke="none" 
	d="
M140.017395,302.727417 
	C139.514877,304.339111 139.177444,306.193298 138.098251,306.877472 
	C133.204880,309.979645 128.053604,312.671448 123.095848,315.677094 
	C120.695396,317.132355 119.124931,316.777588 117.866341,314.298889 
	C116.742409,312.085388 115.327332,310.008270 114.332497,307.742798 
	C110.904243,299.935913 115.413948,291.499969 123.820953,289.966644 
	C129.090408,289.005585 132.489456,292.394836 135.626358,295.718109 
	C137.405273,297.602722 138.460037,300.170868 140.017395,302.727417 
z"/>
<path fill="#000000" opacity="1.000000" stroke="none" 
	d="
M385.229462,206.776382 
	C384.975555,205.061417 384.822510,203.745590 384.509186,202.469086 
	C383.841156,199.747299 384.855835,198.355972 387.640259,198.076660 
	C393.427277,197.496170 399.200470,196.755417 404.997131,196.313812 
	C406.086365,196.230835 408.229614,197.210419 408.242249,197.739044 
	C408.372498,203.180191 409.278748,208.969788 407.747559,213.984009 
	C406.102631,219.370697 400.218140,221.243881 394.965057,220.305527 
	C389.946625,219.409073 386.897400,215.352936 386.005035,210.082245 
	C385.839600,209.105103 385.510986,208.155609 385.229462,206.776382 
z"/>
<path fill="#000000" opacity="1.000000" stroke="none" 
	d="
M164.724197,340.527863 
	C164.101593,341.139771 163.738510,341.484467 163.402267,341.853638 
	C158.932358,346.761383 157.331497,346.987518 153.787048,343.203918 
	C149.015320,338.110229 148.868820,333.726288 153.349243,330.104553 
	C157.795853,326.510162 160.712967,326.354218 164.153870,329.734863 
	C167.427139,332.950836 168.205078,336.481354 164.724197,340.527863 
z"/>
<path fill="#000000" opacity="1.000000" stroke="none" 
	d="
M339.397217,351.013336 
	C336.775970,355.210175 333.195801,356.556519 328.996796,355.206299 
	C324.819244,353.862915 322.972076,349.760162 324.512207,343.426117 
	C325.035889,341.272369 328.208435,338.872742 330.606506,338.241394 
	C336.421021,336.710663 340.754547,343.020660 339.397217,351.013336 
z"/>
<path fill="#000000" opacity="1.000000" stroke="none" 
	d="
M128.425690,155.714600 
	C122.509308,149.497375 122.663795,145.809952 128.713684,141.701401 
	C132.403580,139.195557 136.915482,140.035400 140.049042,143.811356 
	C142.704071,147.010681 142.381454,151.919006 139.300812,155.195023 
	C136.275208,158.412506 132.657440,158.671906 128.425690,155.714600 
z"/>
<path fill="#000000" opacity="1.000000" stroke="none" 
	d="
M105.507202,210.415009 
	C106.262207,214.639282 106.727760,218.949936 107.278160,224.046265 
	C99.855736,220.702148 99.612083,214.705734 105.507202,210.415009 
z"/>
<path fill="#000000" opacity="1.000000" stroke="none" 
	d="
M109.895332,276.090637 
	C106.093864,270.331421 106.276039,267.562836 110.677452,264.410583 
	C111.882378,267.650421 113.193550,270.774078 114.174095,273.998291 
	C114.602638,275.407379 114.354645,277.022217 114.413879,278.543640 
	C112.986259,277.819855 111.558640,277.096039 109.895332,276.090637 
z"/>
<path fill="#000000" opacity="1.000000" stroke="none" 
	d="
M380.374695,159.078476 
	C380.798370,157.869705 381.311523,156.990692 381.824677,156.111664 
	C384.008087,158.241150 386.711609,160.073837 388.164795,162.620071 
	C388.940521,163.979233 387.557465,166.570450 387.148712,168.605621 
	C386.512421,168.662476 385.876099,168.719345 385.239777,168.776199 
	C383.647919,165.653549 382.056061,162.530884 380.374695,159.078476 
z"/>
<path fill="#000000" opacity="1.000000" stroke="none" 
	d="
M149.270294,125.222794 
	C147.586853,126.784355 146.150803,128.099762 144.714752,129.415146 
	C144.118912,129.173065 143.523071,128.930984 142.927231,128.688904 
	C143.615692,126.122299 143.573013,122.874046 145.173325,121.157593 
	C147.285568,118.892014 150.271301,116.085983 154.778641,119.044853 
	C152.929611,121.129646 151.223648,123.053139 149.270294,125.222794 
z"/>
<path fill="#000000" opacity="1.000000" stroke="none" 
	d="
M150.458298,115.526520 
	C150.431717,115.480705 150.484879,115.572327 150.458298,115.526520 
z"/>
<path fill="#000000" opacity="1.000000" stroke="none" 
	d="
M387.685638,293.594910 
	C383.918274,301.350739 383.918274,301.350739 378.283539,301.441528 
	C380.598846,296.581268 382.696564,292.177856 384.794250,287.774445 
	C385.325409,287.754364 385.856537,287.734283 386.387695,287.714172 
	C386.856537,289.554352 387.325348,291.394531 387.685638,293.594910 
z"/>
<path fill="#000000" opacity="1.000000" stroke="none" 
	d="
M396.619598,244.225891 
	C397.065643,241.154221 397.320526,238.451355 397.575409,235.748505 
	C398.079132,235.505554 398.582855,235.262604 399.086578,235.019669 
	C400.303070,236.936996 402.671265,238.988266 402.467468,240.740433 
	C402.157837,243.402985 400.672729,247.053345 398.583344,248.117706 
	C395.539398,249.668304 396.196014,246.466858 396.619598,244.225891 
z"/>
<path fill="#000000" opacity="1.000000" stroke="none" 
	d="
M252.464600,90.368492 
	C250.652634,85.444221 250.644180,81.320503 255.081024,78.100189 
	C258.704010,75.470558 262.080933,76.188469 264.989929,78.928368 
	C267.942352,81.709167 267.522522,88.609428 264.587341,91.700768 
	C261.638000,94.806984 257.814514,95.116219 254.383942,92.477707 
	C253.733307,91.977295 253.209885,91.311462 252.464600,90.368492 
z"/>
<path fill="#000000" opacity="1.000000" stroke="none" 
	d="
M179.916840,354.018433 
	C182.978271,355.682770 185.836166,357.221375 188.854996,358.846649 
	C187.060516,362.672394 184.221985,363.782135 181.261810,362.492676 
	C177.338715,360.783783 175.344925,357.469818 176.225891,352.586090 
	C177.653290,353.120911 178.683289,353.506836 179.916840,354.018433 
z"/>
<path fill="#000000" opacity="1.000000" stroke="none" 
	d="
M354.235718,132.726868 
	C351.859314,133.424454 349.227356,134.748322 347.572266,133.976746 
	C345.681610,133.095352 344.083710,130.528366 343.411957,128.366531 
	C342.632263,125.857170 346.149292,123.511803 348.207153,125.193779 
	C350.628510,127.172890 352.373444,129.979645 354.235718,132.726868 
z"/>
<path fill="#000000" opacity="1.000000" stroke="none" 
	d="
M313.992737,361.893494 
	C313.231873,363.677643 312.732361,365.337524 311.727081,366.592010 
	C308.237518,370.946564 304.492401,370.588531 301.078979,365.740784 
	C304.534729,362.155273 310.950836,360.094391 313.992737,361.893494 
z"/>
<path fill="#000000" opacity="1.000000" stroke="none" 
	d="
M112.922409,170.947281 
	C116.393082,167.061447 120.085129,167.471970 123.396042,170.095993 
	C125.882278,172.066406 129.077164,174.393570 127.087646,178.407425 
	C125.242355,182.130310 123.274269,186.343903 118.191795,185.925339 
	C113.691109,185.554688 110.925385,182.312836 110.481194,178.027039 
	C110.255920,175.853500 111.870468,173.489258 112.922409,170.947281 
z"/>
<path fill="#000000" opacity="1.000000" stroke="none" 
	d="
M347.722717,326.878052 
	C347.686371,322.179474 349.623016,318.562103 353.856262,317.683075 
	C356.142822,317.208313 359.497620,318.400391 361.332886,320.017792 
	C364.336395,322.664764 364.992859,326.460510 363.187317,330.426086 
	C360.268738,336.836243 354.260468,337.708893 350.047546,332.122467 
	C348.992737,330.723785 348.570709,328.847900 347.722717,326.878052 
z"/>
</svg>